<?xml version="1.0" standalone="no"?>
<!DOCTYPE svg PUBLIC "-//W3C//DTD SVG 20010904//EN"
 "http://www.w3.org/TR/2001/REC-SVG-20010904/DTD/svg10.dtd">
<svg version="1.0" xmlns="http://www.w3.org/2000/svg"
 width="400px" height="200px" viewBox="0 0 706.000000 354.000000"
 preserveAspectRatio="xMidYMid meet">

<g transform="translate(0.000000,354.000000) scale(0.100000,-0.100000)"
fill="#000000" stroke="none">
<path d="M1035 2130 c-4 -6 -3 -16 3 -22 6 -6 12 -6 17 2 4 6 3 16 -3 22 -6 6
-12 6 -17 -2z"/>
<path d="M1204 2126 c-8 -22 3 -33 18 -18 9 9 9 15 0 24 -9 9 -13 7 -18 -6z"/>
<path d="M850 2045 c-18 -22 -1 -50 31 -50 20 0 24 5 24 30 0 23 -5 31 -21 33
-11 2 -27 -4 -34 -13z"/>
<path d="M1016 2042 c-11 -32 4 -53 33 -50 22 2 26 8 26 33 0 25 -4 31 -27 33
-19 2 -28 -2 -32 -16z"/>
<path d="M1192 2051 c-8 -4 -12 -19 -10 -32 5 -36 55 -40 64 -5 3 14 3 30 -1
35 -7 13 -35 14 -53 2z"/>
<path d="M1354 2046 c-11 -28 1 -51 25 -51 32 0 49 28 32 49 -17 20 -50 21
-57 2z"/>
<path d="M4053 1959 c-69 -20 -96 -105 -49 -150 14 -13 53 -35 88 -49 44 -18
67 -33 76 -52 41 -86 -90 -130 -154 -51 -21 25 -44 25 -44 0 0 -22 49 -66 85
-76 83 -23 165 24 165 94 0 56 -15 73 -105 116 -86 41 -104 63 -84 101 24 44
100 43 137 -2 22 -26 49 -13 33 17 -23 44 -92 68 -148 52z"/>
<path d="M1800 1770 l0 -190 115 0 c108 0 115 1 115 20 0 19 -7 20 -90 20
l-90 0 0 65 0 65 49 0 c59 0 81 7 81 26 0 11 -16 14 -65 14 l-65 0 0 65 0 65
85 0 c78 0 85 2 85 20 0 19 -7 20 -110 20 l-110 0 0 -190z"/>
<path d="M2090 1770 c0 -183 1 -190 20 -190 18 0 20 7 20 70 l0 70 60 0 c100
0 150 39 150 118 0 86 -51 122 -175 122 l-75 0 0 -190z m185 129 c9 -9 18 -32
22 -51 4 -30 1 -41 -20 -62 -22 -22 -35 -26 -87 -26 l-60 0 0 81 0 81 65 -4
c40 -2 71 -10 80 -19z"/>
<path d="M2400 1770 c0 -183 1 -190 20 -190 19 0 20 7 20 190 0 183 -1 190
-20 190 -19 0 -20 -7 -20 -190z"/>
<path d="M2510 1770 l0 -190 80 0 c127 0 180 33 180 113 0 37 -27 78 -59 88
-10 4 -6 13 13 33 29 32 32 52 14 91 -18 41 -57 55 -148 55 l-80 0 0 -190z
m174 137 c26 -19 24 -67 -4 -89 -18 -14 -36 -18 -74 -16 l-51 3 -3 44 c-2 24
-1 50 2 57 7 18 106 19 130 1z m27 -166 c24 -30 24 -63 0 -92 -17 -21 -28 -24
-88 -24 l-68 0 -3 59 c-5 87 -3 89 74 84 55 -3 70 -8 85 -27z"/>
<path d="M2820 1770 l0 -190 25 0 c24 0 25 2 25 70 l0 70 44 0 c44 0 46 -1 93
-70 36 -51 54 -69 71 -70 16 0 21 4 15 13 -4 6 -25 38 -46 70 l-38 57 36 34
c30 29 35 40 35 80 0 92 -49 126 -180 126 l-80 0 0 -190z m195 129 c9 -9 18
-32 22 -51 4 -30 1 -41 -20 -62 -22 -22 -35 -26 -87 -26 l-60 0 0 81 0 81 65
-4 c40 -2 71 -10 80 -19z"/>
<path d="M3150 1770 l0 -190 115 0 c108 0 115 1 115 20 0 19 -7 20 -90 20
l-91 0 3 66 3 67 65 1 c51 1 65 4 65 16 0 12 -15 16 -67 18 l-68 3 0 64 0 65
85 0 c78 0 85 2 85 20 0 19 -7 20 -110 20 l-110 0 0 -190z"/>
<path d="M3440 1771 c0 -184 1 -191 20 -191 19 0 20 7 20 148 l1 147 27 -31
c29 -33 143 -177 182 -231 13 -18 32 -33 42 -33 17 0 18 13 18 190 l0 190 -25
0 -24 0 -3 -142 -3 -142 -47 60 c-26 32 -76 95 -110 139 -98 123 -98 123 -98
-104z"/>
<path d="M4358 1931 c-92 -58 -117 -187 -52 -268 46 -56 78 -75 134 -81 65 -6
120 12 159 52 29 30 61 101 61 135 0 63 -53 146 -111 177 -15 7 -54 14 -87 14
-47 0 -67 -6 -104 -29z m180 -31 c137 -84 64 -295 -95 -277 -109 12 -166 152
-98 241 44 57 131 73 193 36z"/>
<path d="M4720 1770 l0 -190 105 0 c98 0 105 1 105 20 0 17 -8 19 -82 22 l-83
3 -3 168 c-2 159 -3 167 -22 167 -19 0 -20 -7 -20 -190z"/>
<path d="M4990 1814 c0 -130 2 -150 20 -179 39 -64 135 -80 194 -34 49 38 56
66 56 219 0 133 -1 140 -20 140 -19 0 -20 -7 -20 -129 0 -175 -16 -211 -91
-211 -85 0 -99 30 -99 211 0 122 -1 129 -20 129 -19 0 -20 -7 -20 -146z"/>
<path d="M5320 1941 c0 -17 8 -20 53 -23 l52 -3 3 -167 c2 -160 3 -168 22
-168 19 0 20 7 20 170 l0 170 50 0 c43 0 50 3 50 20 0 19 -7 20 -125 20 -117
0 -125 -1 -125 -19z"/>
<path d="M5630 1770 c0 -183 1 -190 20 -190 19 0 20 7 20 190 0 183 -1 190
-20 190 -19 0 -20 -7 -20 -190z"/>
<path d="M5835 1941 c-59 -35 -105 -111 -105 -171 0 -70 63 -158 129 -180 54
-18 132 -9 175 21 46 31 86 105 86 157 0 70 -37 134 -100 171 -46 28 -142 29
-185 2z m177 -47 c42 -31 58 -67 58 -128 0 -52 -3 -60 -38 -98 -34 -36 -45
-42 -93 -45 -45 -4 -60 -1 -89 19 -85 57 -94 176 -18 244 12 12 30 24 38 27
30 12 116 1 142 -19z"/>
<path d="M6180 1770 c0 -182 1 -190 20 -190 18 0 20 8 22 147 l3 147 95 -120
c52 -67 104 -133 115 -147 11 -15 28 -27 37 -27 17 0 18 15 18 190 0 183 -1
190 -20 190 -19 0 -20 -7 -20 -138 0 -76 -3 -142 -6 -145 -4 -4 -25 18 -48 47
-162 211 -183 236 -203 236 -10 0 -13 -40 -13 -190z"/>
<path d="M990 1910 c-26 -26 -25 -60 0 -88 24 -26 57 -28 88 -6 45 31 14 114
-43 114 -14 0 -34 -9 -45 -20z"/>
<path d="M1180 1910 c-39 -39 -11 -110 45 -110 29 0 65 36 65 65 0 29 -36 65
-65 65 -14 0 -34 -9 -45 -20z"/>
<path d="M852 1878 c-26 -26 1 -65 38 -53 16 5 20 14 18 33 -3 30 -35 41 -56
20z"/>
<path d="M1357 1883 c-4 -3 -7 -17 -7 -29 0 -29 36 -42 57 -21 21 21 8 57 -21
57 -12 0 -26 -3 -29 -7z"/>
<path d="M776 1873 c-12 -12 -6 -33 9 -33 8 0 15 6 15 14 0 17 -14 28 -24 19z"/>
<path d="M1460 1855 c0 -8 7 -15 15 -15 8 0 15 7 15 15 0 8 -7 15 -15 15 -8 0
-15 -7 -15 -15z"/>
<path d="M987 1722 c-37 -40 -7 -104 48 -104 56 0 87 69 47 105 -25 22 -75 21
-95 -1z"/>
<path d="M1177 1722 c-37 -41 -7 -104 50 -104 31 0 63 33 63 67 0 49 -79 75
-113 37z"/>
<path d="M857 1719 c-37 -21 -8 -77 33 -64 13 4 20 15 20 30 0 29 -28 47 -53
34z"/>
<path d="M1367 1719 c-24 -14 -22 -56 3 -64 25 -8 50 10 50 36 0 24 -30 40
-53 28z"/>
<path d="M772 1696 c1 -10 8 -17 13 -17 15 1 12 24 -3 29 -9 3 -13 -2 -10 -12z"/>
<path d="M1465 1700 c-7 -12 2 -30 16 -30 5 0 9 9 9 20 0 21 -15 27 -25 10z"/>
<path d="M847 1544 c-25 -25 8 -66 45 -56 30 8 20 56 -12 60 -14 2 -29 0 -33
-4z"/>
<path d="M1017 1544 c-13 -14 -7 -43 12 -53 24 -13 55 8 50 35 -4 19 -48 32
-62 18z"/>
<path d="M1187 1544 c-13 -14 -7 -43 12 -53 24 -13 55 8 50 35 -4 19 -48 32
-62 18z"/>
<path d="M1357 1544 c-13 -14 -7 -43 12 -53 24 -13 55 8 50 35 -4 19 -48 32
-62 18z"/>
<path d="M1030 1425 c0 -8 7 -15 15 -15 8 0 15 7 15 15 0 8 -7 15 -15 15 -8 0
-15 -7 -15 -15z"/>
<path d="M1200 1425 c0 -8 7 -15 15 -15 8 0 15 7 15 15 0 8 -7 15 -15 15 -8 0
-15 -7 -15 -15z"/>
</g>
</svg>
